<?xml version="1.0" encoding="utf-8"?>
<!-- Generator: Adobe Illustrator 16.0.3, SVG Export Plug-In . SVG Version: 6.00 Build 0)  -->
<!DOCTYPE svg PUBLIC "-//W3C//DTD SVG 1.1//EN" "http://www.w3.org/Graphics/SVG/1.1/DTD/svg11.dtd">
<svg version="1.1" xmlns="http://www.w3.org/2000/svg" xmlns:xlink="http://www.w3.org/1999/xlink" x="0px" y="0px" width="512px"
	 height="512px" viewBox="0 0 512 512" style="enable-background:new 0 0 512 512;" xml:space="preserve">
<g id="Background" style="display:none;">
	<rect style="display:inline;fill:#FBF5F9;" width="512" height="512"/>
</g>
<g id="Objects">
	<path style="fill:#F5EDB5;" d="M124.787,417.152c11.033,6.387,22.824,11.568,34.88,15.599
		c70.323,23.506,156.651,22.345,221.267-16.634c0.52-0.313,1.039-0.627,1.558-0.939c104.118-63.618,94.072-210.312,26.744-295.978
		c-31.353-39.893-78.562-75.077-130.927-77.017c-51.449-1.906-105.266,12.706-146.864,43.495
		c-22.47,16.63-37.263,34.87-48.013,60.627c-28.568,68.453-50.417,165.611-3.453,231.193
		C91.71,393.881,107.298,407.029,124.787,417.152z"/>
	<g>
		<path style="fill:#F5BA78;" d="M108.957,161.29c18.893-33.399,48.873-62.422,86.198-71.327
			c37.325-8.905,81.589,6.947,97.77,41.741c8.216,17.666,8.706,38.143,5.017,57.273c-3.37,17.465-8.584,48.661-25.827,57.814
			c-16.138,8.566-44.326,9.69-62.435,12.829c-33.802,5.857-68.195,12.214-102.606,12.28c-7.44,0.015-16.33,0.524-23.512-1.813
			c-11.367-3.697-10.135-5.378-8.139-16.246C81.198,222.401,93.241,189.072,108.957,161.29z"/>
		<path style="fill:#CD7338;" d="M112.203,165.308c18.894-33.399,48.873-62.422,86.198-71.327
			c37.326-8.905,81.589,6.947,97.771,41.741c8.215,17.666,8.706,38.143,5.016,57.273c-3.369,17.465-8.584,48.661-25.827,57.814
			c-16.138,8.566-44.327,9.69-62.435,12.828c-33.802,5.858-68.195,12.215-102.606,12.281c-7.439,0.015-16.329,0.524-23.512-1.813
			c-11.366-3.697-10.134-5.378-8.138-16.245C84.445,226.419,96.487,193.09,112.203,165.308z"/>
		<path style="fill:#D6813C;" d="M84.872,274.425c-2.624-1.651-5.347-3.428-6.849-6.141c-1.501-2.713-1.286-6.644,1.295-8.362
			c1.502-1,3.42-1.053,5.224-1.073c39.965-0.443,79.929-0.887,119.894-1.33c-0.145,0.002-9.133,17.466-10.43,19.18
			c-4.73,6.248-10.447,11.75-16.822,16.302c-7.904,5.645-16.59,13.131-26.411,15.538c-13.682,3.354-25.081-9.9-36.108-16.218
			C104.611,286.562,94.679,280.595,84.872,274.425z"/>
		<path style="fill:#C55F2F;" d="M86.223,271.085c-2.625-1.651-5.347-3.428-6.849-6.141s-1.287-6.644,1.294-8.362
			c1.502-1,3.42-1.054,5.225-1.073c39.964-0.443,79.929-0.887,119.893-1.33c-0.145,0.002-9.132,17.466-10.43,19.18
			c-4.73,6.248-10.446,11.75-16.822,16.302c-7.903,5.644-16.59,13.131-26.411,15.538c-13.682,3.354-25.08-9.901-36.107-16.219
			C105.962,283.221,96.028,277.255,86.223,271.085z"/>
		<path style="fill:#4D9A12;" d="M328.012,131.896c2.028-5.298,3.238-10.877,2.934-16.998c-0.613-12.344-10.563-25.12-22.875-24.037
			c-10.503,0.924-17.672,10.79-22.824,19.989c1.354-7.43,2.679-15.264,0.168-22.387c-2.51-7.123-10.319-12.977-17.477-10.567
			c-5.461,1.838-8.585,7.635-9.917,13.241c-1.332,5.606-1.43,11.518-3.471,16.906c1.074-14.273-14.813-26.985-28.503-22.808
			c-13.691,4.178-19.773,23.593-10.913,34.836c0.572-8.004-6.356-15.489-14.321-16.458c-7.966-0.969-16.026,3.95-19.739,11.063
			c-3.713,7.113-3.375,15.937-0.108,23.266c-5.979-10.979-22.823-13.913-32.161-5.6s-8.375,25.385,1.839,32.594
			c-9.406-3.673-20.887-6.57-28.923-0.455c-6.864,5.223-8.23,15.412-5.524,23.602c2.707,8.189,8.623,14.855,14.391,21.27
			c-7.475-8.035-22.353-7.051-28.704,1.898c-6.351,8.949-2.369,23.318,7.683,27.722c-5.084-7.721-18.194-6.111-23.491,1.466
			c-10.354,14.808,0.249,25.565,12.393,32.101c-2.512-0.092-5.127,1.686-4.232,4.702c0.796,2.684,3.544,4.211,6.049,5.46
			c9.292,4.631,18.583,9.263,27.874,13.895c7.917,3.946,16.252,7.989,25.093,7.709c12.094-0.383,22.286-8.647,31.666-16.291
			c24.873-20.271,51.024-38.975,78.244-55.965c10.94-6.829,18.292-11.94,25.889-22.187c7.308-9.855,11.836-21.305,17.815-31.938
			c5.316-9.456,6.975-20.149,12.469-29.329C322.6,143.139,325.795,137.686,328.012,131.896z"/>
		<g>
			<path style="fill:#3F7D0F;" d="M271.024,104.354c-5.461,1.839-8.584,7.635-9.917,13.241c-1.332,5.606-1.43,11.518-3.471,16.907
				c1.074-14.274-14.812-26.986-28.503-22.808c-9.806,2.992-15.706,13.801-15.011,23.825c-2.646-2.915-6.307-4.971-10.224-5.447
				c-7.966-0.969-16.025,3.95-19.738,11.063c-3.714,7.113-3.376,15.937-0.108,23.266c-5.979-10.979-22.824-13.913-32.162-5.6
				c-1.393,1.24-2.551,2.678-3.489,4.246c-8.054-7.968-8.198-23.047,0.402-30.703c9.338-8.313,26.183-5.379,32.161,5.6
				c-3.267-7.329-3.604-16.153,0.108-23.266c3.713-7.114,11.773-12.032,19.738-11.063c3.917,0.477,7.577,2.533,10.225,5.447
				c-0.695-10.024,5.205-20.833,15.011-23.825c13.69-4.178,29.577,8.534,28.503,22.808c2.041-5.388,2.139-11.3,3.471-16.906
				c1.332-5.606,4.456-11.403,9.917-13.241c7.158-2.41,14.967,3.444,17.477,10.567c2.374,6.735,1.318,14.104,0.053,21.168
				C281.863,105.271,276.273,102.587,271.024,104.354z"/>
			<path style="fill:#3F7D0F;" d="M153.73,191.396c-9.406-3.673-20.887-6.57-28.923-0.455c-1.956,1.488-3.45,3.387-4.546,5.52
				c-1.669-2.633-3.083-5.401-4.065-8.375c-2.707-8.19-1.341-18.379,5.523-23.602c7.274-5.535,17.364-3.682,26.189-0.558
				C143.188,172.839,145.32,185.459,153.73,191.396z"/>
			<path style="fill:#3F7D0F;" d="M311.158,117.319c-10.504,0.924-17.672,10.789-22.824,19.988
				c1.353-7.43,2.678-15.264,0.168-22.386c-0.621-1.764-1.57-3.449-2.752-4.952c5.115-8.938,12.151-18.213,22.32-19.108
				c12.313-1.083,22.262,11.693,22.875,24.037c0.223,4.473-0.37,8.655-1.494,12.651C325.281,121.15,318.661,116.659,311.158,117.319
				z"/>
			<path style="fill:#3F7D0F;" d="M86.073,240.44c3.81-5.449,11.659-7.811,17.658-5.838c-5.474-6.288-6.761-16.43-1.85-23.35
				c3.624-5.106,10.023-7.608,16.24-7.332c-0.362,3.557,0.049,7.257,1.161,10.622c2.706,8.19,8.623,14.856,14.391,21.27
				c-7.475-8.035-22.353-7.051-28.704,1.898c-4.911,6.919-3.625,17.062,1.85,23.35c-5.832-1.919-13.405,0.264-17.323,5.39
				C82.178,260.012,78.466,251.321,86.073,240.44z"/>
		</g>
		<path style="fill:#D9AF23;" d="M217.275,123.641c12.048,9.816,12.789-6.556,11.384-15.192
			c-1.552-9.542-6.699-18.637-12.372-25.977c-1.196-1.547-2.69-3.165-4.643-3.27c-1.74-0.093-3.276,1.054-4.606,2.179
			c-6.071,5.132-11.479,11.047-16.048,17.554C199.155,107.776,207.946,116.039,217.275,123.641z"/>
		<path style="fill:#E2CFDC;" d="M138.732,208.001c15.251,2.986,8.194-11.806,2.888-18.763
			c-5.862-7.687-14.686-13.286-23.147-17.089c-1.783-0.802-3.863-1.525-5.635-0.697c-1.578,0.737-2.394,2.473-3.038,4.091
			c-2.938,7.386-4.923,15.152-5.89,23.042C115.276,202.54,126.923,205.689,138.732,208.001z"/>
		<g>
			<path style="fill:#C73A0F;" d="M200.782,201.125c7.472,9.046,22.909,17.437,34.802,15.182
				c10.398-1.972,25.053-13.517,31.716-21.739c9.309-11.487,13.957-26.362,17.318-40.534c3.105-13.093,4.843-26.724,2.753-40.017
				c-2.088-13.293-8.329-26.288-18.92-34.589s-25.811-11.151-37.946-5.336c-8.035,3.85-14.041,10.933-19.011,18.327
				c-13.603,20.233-21.257,44.413-21.777,68.788C189.416,175.313,191.797,190.247,200.782,201.125z"/>
			<path style="fill:#E34F22;" d="M213.034,201.021c7.075,8.566,21.692,16.511,32.954,14.375
				c9.845-1.867,23.722-12.799,30.031-20.584c8.815-10.877,13.215-24.962,16.399-38.381c2.939-12.397,4.585-25.304,2.607-37.892
				c-1.979-12.587-7.888-24.892-17.916-32.751c-10.029-7.86-24.44-10.559-35.931-5.053c-7.608,3.646-13.295,10.353-18.002,17.354
				c-12.88,19.159-20.128,42.055-20.62,65.135C202.271,176.58,204.526,190.72,213.034,201.021z"/>
			<path style="fill:#C73A0F;" d="M251.103,141.645c2.888,4.869,7.281,7.292,12.768,0.531c8.745-10.776,26.521-35.418,7.726-48.486
				c-7.715-5.364-19.637-5.247-22.921,2.704c-4.473,10.831-2.467,21.702-1.324,33.335
				C247.699,133.266,249.002,138.103,251.103,141.645z"/>
			<path style="fill:#C73A0F;" d="M240.886,158.142c-2.087-13.962-4.174-27.925-6.261-41.887c-0.353-2.361-0.832-4.951-2.693-6.445
				c-2.348-1.887-6.014-1.108-8.25,0.91c-2.235,2.018-3.387,4.94-4.465,7.753c-2.899,7.565-5.8,15.13-8.699,22.695
				c-1.136,2.964-2.285,6.211-1.329,9.238c1.056,3.342,4.354,5.397,7.512,6.917c5.018,2.416,14.275,6.752,19.939,4.235
				c2.807-1.248,4.789-4.171,4.907-7.241"/>
			<path style="fill:#C73A0F;" d="M248.724,178.994c0.822-1.526,1.515-3.166,2.012-4.998c0.751-2.769,0.95-6.188-1.238-8.043
				c-3.59-3.043-8.818,1.139-12.402,2.118c-6.346,1.732-13.583,2.791-20.123,3.742c-2.237,0.326-4.627,0.723-6.269,2.277
				c-2.746,2.601-2.151,7.051-1.279,10.732c1.799,7.59,7.927,23.369,18.82,18.85c5.685-2.358,8.967-8.293,12.253-13.107
				C243.294,186.468,246.486,183.149,248.724,178.994z"/>
			<path style="fill:#C73A0F;" d="M280.357,132.873c-4.611,6.94-26.882,30.614-11.678,36.979
				c14.514,6.073,22.016-13.25,23.285-24.282c0.482-4.198,0.425-8.525-0.851-12.553c-0.644-2.031-1.853-4.187-3.927-4.67
				C284.346,127.686,281.973,130.442,280.357,132.873z"/>
			<path style="fill:#C73A0F;" d="M255.315,177.416c-2.896,5.977-18.238,29.962-4.666,28.64c7.386-0.719,15.675-8.973,19.98-14.363
				c0.978-1.224,1.925-2.607,1.972-4.173c0.06-2-1.365-3.741-2.935-4.981c-1.57-1.24-3.383-2.214-4.664-3.751
				c-1.724-2.07-2.973-5.379-5.663-5.233C257.388,173.659,256.168,175.655,255.315,177.416z"/>
		</g>
		<path style="fill:#E2CFDC;" d="M256.565,132.648c-8.367,13.095,7.982,11.95,16.4,9.563c9.3-2.637,17.744-8.795,24.382-15.274
			c1.4-1.366,2.836-3.036,2.715-4.988c-0.107-1.738-1.424-3.133-2.693-4.325c-5.795-5.441-12.293-10.134-19.281-13.924
			C270.243,112.825,263.045,122.507,256.565,132.648z"/>
		<g>
			<path style="fill:#C7390E;" d="M135.847,242.037c7.472,9.046,22.909,17.437,34.802,15.181
				c10.397-1.972,25.053-13.517,31.716-21.738c9.31-11.487,13.957-26.362,17.318-40.534c3.105-13.093,4.842-26.724,2.753-40.017
				c-2.089-13.293-8.329-26.288-18.92-34.589s-25.811-11.151-37.945-5.336c-8.035,3.85-14.041,10.933-19.012,18.327
				c-13.603,20.233-21.258,44.413-21.777,68.788C124.48,216.225,126.861,231.158,135.847,242.037z"/>
			<path style="fill:#EB5E34;" d="M148.099,241.932c7.075,8.566,21.692,16.511,32.953,14.375c9.846-1.867,23.723-12.8,30.031-20.584
				c8.815-10.877,13.216-24.962,16.399-38.381c2.94-12.397,4.585-25.304,2.607-37.892c-1.978-12.587-7.887-24.892-17.916-32.752
				c-10.029-7.86-24.44-10.559-35.931-5.053c-7.608,3.646-13.295,10.353-18.002,17.354c-12.88,19.159-20.128,42.055-20.62,65.135
				C137.336,217.491,139.59,231.631,148.099,241.932z"/>
			<path style="fill:#C73A0F;" d="M186.167,182.556c2.888,4.869,7.281,7.292,12.768,0.532c8.744-10.776,26.521-35.418,7.726-48.486
				c-7.715-5.364-19.637-5.248-22.921,2.704c-4.473,10.831-2.467,21.702-1.324,33.335
				C182.763,174.177,184.066,179.014,186.167,182.556z"/>
			<path style="fill:#C73A0F;" d="M175.95,199.053c-2.087-13.962-4.174-27.925-6.261-41.887c-0.353-2.361-0.832-4.951-2.692-6.446
				c-2.349-1.886-6.014-1.108-8.25,0.911c-2.235,2.018-3.387,4.94-4.465,7.753c-2.9,7.565-5.8,15.13-8.699,22.695
				c-1.137,2.964-2.285,6.211-1.329,9.238c1.055,3.342,4.354,5.397,7.512,6.917c5.018,2.415,14.275,6.751,19.938,4.235
				c2.808-1.248,4.789-4.171,4.907-7.241"/>
			<path style="fill:#C73A0F;" d="M183.788,219.905c0.822-1.526,1.516-3.166,2.013-4.998c0.751-2.769,0.95-6.188-1.238-8.043
				c-3.59-3.043-8.818,1.139-12.402,2.118c-6.347,1.732-13.583,2.79-20.123,3.742c-2.237,0.326-4.627,0.723-6.269,2.277
				c-2.746,2.601-2.152,7.051-1.279,10.732c1.799,7.59,7.927,23.369,18.82,18.85c5.684-2.358,8.966-8.293,12.253-13.107
				C178.358,227.379,181.551,224.06,183.788,219.905z"/>
			<path style="fill:#C73A0F;" d="M215.422,173.784c-4.611,6.94-26.883,30.613-11.678,36.979
				c14.514,6.073,22.015-13.25,23.284-24.282c0.483-4.198,0.426-8.525-0.85-12.553c-0.644-2.031-1.853-4.187-3.928-4.67
				C219.41,168.596,217.036,171.354,215.422,173.784z"/>
			<path style="fill:#C73A0F;" d="M190.38,218.327c-2.896,5.977-18.238,29.962-4.666,28.64c7.386-0.719,15.675-8.973,19.981-14.363
				c0.978-1.224,1.925-2.607,1.972-4.173c0.061-2-1.365-3.741-2.935-4.981s-3.384-2.214-4.664-3.751
				c-1.724-2.07-2.973-5.379-5.663-5.233C192.452,214.57,191.233,216.566,190.38,218.327z"/>
		</g>
		<path style="fill:#D9AF23;" d="M151.11,205.803c5.991-5.616,3.824-17.283-3.785-20.372c-7.609-3.089-17.296,3.765-16.915,11.969
			c0.758-6.192-4.605-12.328-10.83-12.733c-6.226-0.405-12.208,4.664-13.174,10.827c-0.967,6.163,2.919,12.643,8.682,15.033
			c-5.876-5.364-16.403-4.208-20.976,2.303c-4.572,6.511-2.085,16.805,4.956,20.511c-1.637-4.151-7.756-5.208-11.277-2.466
			c-3.521,2.742-4.344,8.024-2.744,12.19s5.167,7.306,9.063,9.483c-4.096,1.121-5.875,6.421-4.487,10.435
			c4.272,12.355,20.449,16.687,30.081,8.938c-3.021,6.077,3.116,13.845,9.902,13.859s12.538-5.782,14.462-12.29
			c1.925-6.509,0.792-13.515-0.908-20.085c6.032-4.136,12.137-8.335,16.919-13.869c4.783-5.533,8.175-12.644,7.751-19.945
			c-0.425-7.301-5.362-14.555-12.486-16.208"/>
		<path style="fill:#E3DACC;" d="M192.444,177.018c5.991-5.616,3.824-17.283-3.785-20.372c-7.609-3.089-17.296,3.765-16.914,11.969
			c0.758-6.192-4.606-12.328-10.831-12.733c-6.226-0.405-12.208,4.664-13.174,10.827s2.919,12.643,8.682,15.033
			c-5.876-5.364-16.403-4.208-20.976,2.303c-4.572,6.512-2.085,16.806,4.956,20.511c-1.637-4.151-7.756-5.208-11.276-2.466
			c-3.521,2.742-4.345,8.024-2.745,12.19s5.167,7.306,9.063,9.483c-4.096,1.121-5.875,6.42-4.487,10.435
			c4.272,12.355,20.449,16.686,30.081,8.938c-3.021,6.077,3.116,13.845,9.902,13.859c6.787,0.014,12.538-5.783,14.463-12.291
			c1.924-6.508,0.791-13.514-0.909-20.084c6.032-4.136,12.137-8.336,16.92-13.869c4.782-5.533,8.175-12.644,7.75-19.945
			s-5.361-14.555-12.486-16.208"/>
		<g>
			<path style="fill:#782B13;" d="M163.021,221.48l-4.232,2.421c5.98-5.605,3.831-17.234-3.742-20.351l0.296-0.169
				c7.124,1.652,12.062,8.906,12.486,16.208c0.077,1.326,0.024,2.646-0.136,3.952C166.279,222.59,164.715,221.873,163.021,221.48z"
				/>
			<path style="fill:#E3DACC;" d="M92.726,261.162c1.6,4.166,5.167,7.307,9.063,9.483c-1.461,0.4-2.621,1.338-3.454,2.553
				c-3.912-2.168-7.13-5.641-8.712-10.217c-1.193-3.45-0.041-7.842,2.905-9.722C91.687,255.771,91.768,258.666,92.726,261.162z"/>
			<path style="fill:#E3DACC;" d="M94.857,229.706c-3.605-4.766-4.229-11.916-0.745-16.877c3.711-5.285,11.343-7.041,17.229-4.648
				c-3.584-3.114-5.671-7.99-4.935-12.688c0.966-6.163,6.948-11.232,13.174-10.827c5.702,0.371,10.666,5.552,10.88,11.178
				c0.802-7.484,9.742-13.306,16.865-10.414c6.503,2.64,9.012,11.536,5.869,17.574c-6.745-1.368-14.319,4.076-15.055,10.938
				c-0.214-5.626-5.179-10.807-10.881-11.178c-6.226-0.405-12.208,4.664-13.174,10.827c-0.736,4.698,1.351,9.573,4.935,12.688
				c-5.886-2.393-13.518-0.636-17.229,4.648c-3.483,4.961-2.859,12.111,0.745,16.877c-2.347-0.704-5.107-0.358-7.065,1.167
				c-1.026,0.799-1.817,1.819-2.392,2.959c-3.482-2.14-6.575-5.074-8.032-8.868c-1.6-4.166-0.776-9.448,2.745-12.19
				C89.75,229.349,92.51,229.002,94.857,229.706z"/>
		</g>
		<path style="fill:#F5BA78;" d="M160.053,196.62c18.894-33.399,48.874-62.422,86.199-71.327
			c37.325-8.905,81.588,6.947,97.77,41.741c8.215,17.666,8.706,38.143,5.016,57.273c-3.369,17.465-8.584,48.661-25.826,57.814
			c-16.138,8.566-44.327,9.689-62.436,12.828c-33.801,5.858-68.195,12.215-102.606,12.281c-7.439,0.014-16.329,0.523-23.512-1.813
			c-11.366-3.697-10.134-5.378-8.138-16.246C132.295,257.731,144.337,224.402,160.053,196.62z"/>
		<path style="fill:#D68E3C;" d="M167.808,199.754c18.894-33.399,48.874-62.422,86.199-71.327
			c37.326-8.905,81.589,6.946,97.77,41.741c8.216,17.666,8.706,38.143,5.016,57.273c-3.369,17.465-8.584,48.661-25.826,57.814
			c-16.138,8.566-44.327,9.689-62.435,12.828c-33.802,5.857-68.196,12.215-102.607,12.281c-7.439,0.014-16.329,0.523-23.511-1.813
			c-11.367-3.697-10.135-5.378-8.139-16.246C140.05,260.865,152.093,227.536,167.808,199.754z"/>
		<path style="fill:#D6813C;" d="M247.236,297.396c18.108-3.138,46.297-4.262,62.435-12.828
			c17.242-9.153,22.457-40.35,25.826-57.814c3.69-19.13,3.2-39.607-5.016-57.272c-11.288-24.273-36.245-39.313-62.977-43.174
			c33.92-2.752,70.007,13.188,84.271,43.861c8.216,17.666,8.706,38.143,5.016,57.273c-3.369,17.464-8.584,48.661-25.826,57.814
			c-16.138,8.566-44.327,9.689-62.435,12.828c-33.802,5.857-68.195,12.215-102.607,12.28c-5.929,0.012-12.777,0.333-18.95-0.718
			C180.603,309.307,214.202,303.121,247.236,297.396z"/>
		<path style="fill:#D99446;" d="M175.089,222.32c-4.895,15.601-23.753,54.823-5.324,67.466c4.681,3.211,11.1,1.942,16.257-0.429
			c15.434-7.097,25.556-22.082,33.955-36.848c11.372-19.993,21.073-40.918,29.231-62.418c4.228-11.142,20.812-42.818-4.732-39.013
			c-14.488,2.159-26.979,8.722-38.07,18.044C190.434,182.545,181.334,202.414,175.089,222.32z"/>
		<path style="fill:#D6813C;" d="M280.815,148.77c8.889,0,8.903,13.814,0,13.814C271.926,162.584,271.912,148.77,280.815,148.77z"/>
		<path style="fill:#D6813C;" d="M238.39,144.939c0.126,0.083,0.252,0.167,0.378,0.25c4.029,2.66,4.029,8.152,0,10.812
			c-0.126,0.083-0.252,0.167-0.378,0.25c-4.216,2.784-9.855-0.896-9.855-5.655C228.534,145.836,234.173,142.156,238.39,144.939z"/>
		<path style="fill:#D6813C;" d="M198.318,183.273c1.503-1.38,3.35-2.25,5.432-2.25c1.969,0,4.038,0.857,5.431,2.25
			c1.333,1.332,2.336,3.518,2.25,5.432c-0.089,1.986-0.741,4.047-2.25,5.432c-1.503,1.379-3.35,2.25-5.431,2.25
			c-1.97,0-4.039-0.857-5.432-2.25c-1.333-1.333-2.336-3.519-2.25-5.432C196.157,186.718,196.81,184.658,198.318,183.273z"/>
		<path style="fill:#D6813C;" d="M165.64,221.813c6.438,0,6.448,10.004,0,10.004C159.203,231.816,159.192,221.813,165.64,221.813z"
			/>
	</g>
	<path style="fill:#E8C03A;" d="M135.688,395.388c-1.86,3.159,1.395,21.404,1.427,25.99c2.946,0.342,5.893,0.685,8.839,1.026
		c2.416-7.867,3.162-18.032,4.032-26.706C150.011,395.44,137.34,392.574,135.688,395.388z"/>
	<path style="fill:#E8C03A;" d="M355.127,59.735c-3.2,1.788-9.6,19.181-11.887,23.156c2.37,1.783,4.74,3.565,7.111,5.348
		c6.057-5.572,11.832-13.97,16.961-21.019C367.465,67.011,357.975,58.141,355.127,59.735z"/>
	<path style="fill:#E34F22;" d="M115.789,398.11c3.62-0.577,15.618-14.702,19.134-17.647c-1.611-2.489-3.224-4.979-4.835-7.47
		c-7.605,3.146-15.919,9.042-23.162,13.894C106.711,387.03,112.566,398.627,115.789,398.11z"/>
	<path style="fill:#4AAA24;" d="M313.109,45.734c0.24,3.571,12.316,17.616,14.752,21.516c2.428-1.092,4.857-2.185,7.286-3.278
		c-2.291-7.852-7.064-16.88-10.96-24.694C324.072,39.047,312.893,42.555,313.109,45.734z"/>
	<g>
		<path style="fill:#F5BA78;" d="M162.081,304.038c5-38.045,21.919-76.188,53.187-98.432c31.269-22.244,78.246-24.135,106.287,2.06
			c14.237,13.3,22.367,32.1,26.113,51.219c3.422,17.455,10.278,48.332-2.277,63.279c-11.752,13.99-37.465,25.596-53.078,35.292
			c-29.143,18.099-58.647,36.881-90.526,49.838c-6.893,2.802-14.942,6.605-22.478,7.131c-11.924,0.832-11.411-1.188-13.633-12.013
			C159.248,371.099,157.922,335.686,162.081,304.038z"/>
		<path style="fill:#CD7338;" d="M166.597,306.547c5-38.046,21.919-76.189,53.187-98.433c31.269-22.243,78.246-24.135,106.287,2.06
			c14.237,13.299,22.367,32.1,26.113,51.219c3.422,17.454,10.277,48.332-2.277,63.279c-11.752,13.989-37.465,25.596-53.078,35.291
			c-29.143,18.099-58.648,36.882-90.526,49.838c-6.893,2.802-14.943,6.605-22.478,7.132c-11.924,0.831-11.411-1.188-13.633-12.013
			C163.763,373.606,162.438,338.193,166.597,306.547z"/>
		<path style="fill:#D6813C;" d="M182.149,417.954c-3.052-0.547-6.241-1.174-8.65-3.127c-2.409-1.952-3.683-5.677-1.934-8.237
			c1.018-1.49,2.775-2.259,4.44-2.953c36.887-15.388,73.772-30.775,110.658-46.163c-0.134,0.056-1.922,19.615-2.482,21.69
			c-2.044,7.565-5.282,14.809-9.487,21.418c-5.213,8.194-10.46,18.391-18.664,24.304c-11.428,8.236-26.963,0.22-39.555-1.505
			C204.999,421.809,193.553,420,182.149,417.954z"/>
		<path style="fill:#C55F2F;" d="M182.149,414.352c-3.052-0.547-6.241-1.174-8.65-3.127c-2.409-1.952-3.683-5.677-1.934-8.237
			c1.018-1.49,2.775-2.259,4.44-2.953c36.887-15.388,73.772-30.775,110.658-46.163c-0.134,0.056-1.922,19.615-2.482,21.69
			c-2.044,7.565-5.282,14.808-9.487,21.418c-5.213,8.194-10.46,18.391-18.664,24.304c-11.428,8.236-26.963,0.219-39.555-1.505
			C204.999,418.206,193.553,416.396,182.149,414.352z"/>
		<path style="fill:#4D9A12;" d="M354.156,194.696c-0.104-5.672-1.074-11.298-3.649-16.858
			c-5.194-11.215-19.207-19.332-30.216-13.713c-9.391,4.793-12.34,16.625-13.67,27.085c-1.53-7.396-3.236-15.155-8.233-20.818
			s-14.431-8.164-20.164-3.247c-4.374,3.751-5.098,10.295-4.231,15.993c0.866,5.696,2.991,11.214,3.118,16.975
			c-4.354-13.636-23.846-19.468-34.974-10.464c-11.127,9.004-9.49,29.284,2.938,36.387c-2.469-7.635-11.698-11.979-19.445-9.892
			c-7.749,2.087-13.378,9.667-14.154,17.654c-0.777,7.987,2.843,16.041,8.618,21.611c-9.657-7.939-26.374-4.345-31.916,6.861
			s1.749,26.673,13.92,29.529c-10.098,0.12-21.826,1.736-26.985,10.417c-4.407,7.415-1.855,17.374,3.723,23.952
			s13.563,10.541,21.313,14.327c-9.94-4.648-23.366,1.839-25.9,12.517c-2.535,10.677,6.542,22.507,17.512,22.822
			c-7.607-5.253-19.159,1.152-21.23,10.162c-4.05,17.608,9.812,23.609,23.519,25.117c-2.362,0.856-4.121,3.484-2.161,5.945
			c1.743,2.19,4.863,2.576,7.654,2.795c10.35,0.813,20.699,1.624,31.049,2.437c8.819,0.691,18.061,1.316,26.153-2.257
			c11.068-4.887,17.421-16.369,23.252-26.971c15.465-28.114,32.7-55.256,51.569-81.208c7.585-10.432,12.483-17.926,15.688-30.272
			c3.081-11.876,2.989-24.188,4.548-36.287c1.386-10.759-1.085-21.295,0.57-31.865C353.352,207.146,354.271,200.894,354.156,194.696
			z"/>
		<g>
			<path style="fill:#3F7D0F;" d="M291.002,190.516c-4.375,3.751-5.099,10.296-4.232,15.993c0.866,5.696,2.991,11.214,3.118,16.975
				c-4.354-13.636-23.846-19.468-34.973-10.464c-7.97,6.449-9.389,18.681-4.988,27.714c-3.546-1.71-7.71-2.245-11.521-1.219
				c-7.748,2.087-13.377,9.667-14.154,17.655c-0.777,7.986,2.843,16.04,8.619,21.61c-9.658-7.938-26.375-4.345-31.917,6.861
				c-0.827,1.672-1.362,3.438-1.644,5.243c-10.453-4.369-16.238-18.295-11.134-28.615c5.542-11.206,22.259-14.8,31.916-6.861
				c-5.775-5.57-9.396-13.624-8.618-21.611c0.776-7.987,6.405-15.567,14.153-17.654c3.81-1.026,7.975-0.491,11.521,1.219
				c-4.401-9.034-2.981-21.266,4.988-27.715c11.127-9.004,30.62-3.172,34.974,10.464c-0.127-5.761-2.252-11.279-3.118-16.976
				s-0.143-12.241,4.231-15.992c5.733-4.917,15.167-2.416,20.164,3.247c4.724,5.354,6.507,12.583,7.981,19.606
				C301.394,187.304,295.205,186.911,291.002,190.516z"/>
			<path style="fill:#3F7D0F;" d="M214.874,315.171c-10.098,0.12-21.826,1.736-26.985,10.417c-1.256,2.112-1.93,4.434-2.146,6.821
				c-2.533-1.815-4.883-3.853-6.908-6.241c-5.578-6.579-8.13-16.537-3.723-23.952c4.669-7.857,14.719-9.921,24.071-10.332
				C198.146,301.917,204.852,312.819,214.874,315.171z"/>
			<path style="fill:#3F7D0F;" d="M333.068,187.496c-9.391,4.793-12.34,16.625-13.67,27.085c-1.53-7.396-3.236-15.155-8.233-20.818
				c-1.237-1.402-2.748-2.609-4.407-3.559c1.393-10.203,4.44-21.439,13.533-26.08c11.009-5.618,25.021,2.499,30.216,13.713
				c1.882,4.063,2.9,8.162,3.356,12.288C347.599,185.755,339.777,184.072,333.068,187.496z"/>
			<path style="fill:#3F7D0F;" d="M170.527,385.996c1.489-6.479,7.882-11.611,14.184-12.029
				c-7.432-3.778-12.425-12.699-10.465-20.955c1.446-6.093,6.441-10.811,12.309-12.884c0.997,3.433,2.766,6.709,5.057,9.412
				c5.578,6.579,13.563,10.542,21.313,14.327c-9.94-4.648-23.366,1.839-25.9,12.517c-1.96,8.256,3.033,17.177,10.465,20.955
				c-6.125,0.407-12.329,5.268-14.04,11.489C174.25,405.602,167.552,398.935,170.527,385.996z"/>
		</g>
		<path style="fill:#D9AF23;" d="M248.397,228.54c14.848,4.586,9.399-10.871,4.86-18.352c-5.014-8.265-13.194-14.768-21.205-19.447
			c-1.688-0.987-3.68-1.927-5.53-1.292c-1.647,0.566-2.643,2.205-3.454,3.746c-3.706,7.033-6.503,14.544-8.3,22.288
			C225.652,220.622,236.899,224.988,248.397,228.54z"/>
		<path style="fill:#D9AF23;" d="M207.192,336.187c15.258-2.947,3.173-14.016-4.354-18.478c-8.315-4.931-18.595-6.814-27.864-7.17
			c-1.954-0.074-4.154,0.034-5.486,1.465c-1.188,1.275-1.293,3.19-1.283,4.932c0.044,7.95,1.113,15.894,3.175,23.57
			C183.398,339.913,195.376,338.469,207.192,336.187z"/>
		<g>
			<path style="fill:#C73A0F;" d="M262.143,306.559c10.318,5.587,27.775,7.581,37.955,1.033c8.901-5.725,18.162-21.921,21.258-32.04
				c4.326-14.139,3.062-29.671,0.867-44.07c-2.028-13.303-5.525-26.591-12.444-38.133s-17.573-21.25-30.504-24.978
				c-12.93-3.727-28.108-0.666-37.18,9.273c-6.006,6.581-8.92,15.398-10.758,24.116c-5.028,23.856-3.064,49.143,5.589,71.936
				C241.933,286.887,249.736,299.841,262.143,306.559z"/>
			<path style="fill:#E34F22;" d="M273.463,301.87c9.77,5.291,26.299,7.179,35.939,0.979c8.428-5.421,17.197-20.757,20.129-30.339
				c4.096-13.388,2.898-28.095,0.82-41.729c-1.92-12.596-5.232-25.179-11.783-36.107s-16.641-20.122-28.884-23.651
				c-12.243-3.529-26.616-0.631-35.206,8.78c-5.688,6.231-8.446,14.58-10.187,22.835c-4.762,22.589-2.901,46.533,5.292,68.115
				C254.326,283.243,261.715,295.509,273.463,301.87z"/>
			<path style="fill:#C73A0F;" d="M286.506,232.555c4.502,3.432,9.483,4.032,12.036-4.292c4.069-13.268,11.315-42.776-11.007-47.848
				c-9.164-2.082-20.173,2.494-20.237,11.097c-0.088,11.718,5.845,21.044,11.265,31.402
				C280.21,226.063,283.23,230.058,286.506,232.555z"/>
			<path style="fill:#C73A0F;" d="M283.217,251.679c-7.168-12.163-14.335-24.326-21.503-36.489
				c-1.212-2.056-2.626-4.278-4.912-4.967c-2.884-0.869-5.991,1.227-7.307,3.936s-1.289,5.85-1.234,8.861
				c0.146,8.101,0.293,16.201,0.439,24.301c0.058,3.174,0.209,6.615,2.229,9.063c2.231,2.703,6.06,3.372,9.558,3.599
				c5.556,0.358,15.765,0.91,20.072-3.546c2.136-2.209,2.876-5.662,1.836-8.553"/>
			<path style="fill:#C73A0F;" d="M298.297,268.074c0.191-1.724,0.219-3.503-0.006-5.388c-0.342-2.849-1.438-6.094-4.163-6.993
				c-4.469-1.477-7.749,4.36-10.704,6.611c-5.235,3.984-11.548,7.677-17.255,11.011c-1.952,1.14-4.019,2.403-4.958,4.46
				c-1.571,3.44,0.647,7.343,2.835,10.43c4.512,6.362,16.106,18.694,24.513,10.423c4.387-4.316,5.205-11.05,6.447-16.744
				C296.064,277.038,297.78,272.765,298.297,268.074z"/>
			<path style="fill:#C73A0F;" d="M310.342,213.459c-1.675,8.163-13.451,38.457,3.031,38.661
				c15.732,0.19,15.445-20.535,12.488-31.239c-1.126-4.073-2.801-8.063-5.492-11.32c-1.358-1.642-3.287-3.188-5.393-2.858
				C312.096,207.155,310.928,210.601,310.342,213.459z"/>
			<path style="fill:#C73A0F;" d="M303.816,264.141c-0.444,6.626-5.68,34.613,6.408,28.301c6.578-3.435,11.17-14.193,13.142-20.804
				c0.448-1.502,0.808-3.139,0.265-4.608c-0.693-1.876-2.668-2.956-4.588-3.518s-3.966-0.785-5.729-1.73
				c-2.375-1.273-4.773-3.873-7.213-2.73C304.33,259.881,303.948,262.188,303.816,264.141z"/>
		</g>
		<path style="fill:#D9AF23;" d="M288.199,222.167c-2.85,15.276,11.879,8.088,18.788,2.72c7.635-5.931,13.154-14.804,16.882-23.299
			c0.786-1.791,1.491-3.877,0.648-5.642c-0.752-1.571-2.494-2.371-4.119-3.001c-7.412-2.873-15.195-4.788-23.094-5.684
			C293.451,198.663,290.406,210.337,288.199,222.167z"/>
		<g>
			<path style="fill:#C7390E;" d="M217.271,368.823c10.317,5.587,27.774,7.581,37.955,1.033c8.901-5.725,18.162-21.921,21.258-32.04
				c4.326-14.139,3.061-29.671,0.866-44.07c-2.027-13.303-5.525-26.591-12.443-38.133c-6.918-11.541-17.574-21.25-30.504-24.977
				c-12.93-3.727-28.109-0.666-37.18,9.273c-6.007,6.58-8.92,15.397-10.758,24.115c-5.029,23.856-3.064,49.144,5.588,71.937
				C197.061,349.151,204.864,362.105,217.271,368.823z"/>
			<path style="fill:#EB5E34;" d="M228.591,364.135c9.77,5.29,26.3,7.179,35.94,0.979c8.428-5.421,17.197-20.757,20.128-30.339
				c4.097-13.388,2.897-28.095,0.819-41.729c-1.919-12.596-5.231-25.179-11.782-36.107c-6.551-10.928-16.641-20.122-28.884-23.651
				c-12.243-3.529-26.615-0.63-35.205,8.781c-5.688,6.23-8.447,14.58-10.187,22.835c-4.762,22.589-2.901,46.533,5.291,68.115
				C209.454,345.508,216.843,357.773,228.591,364.135z"/>
			<path style="fill:#C73A0F;" d="M241.634,294.819c4.502,3.433,9.483,4.033,12.037-4.292c4.068-13.268,11.315-42.776-11.007-47.848
				c-9.163-2.082-20.173,2.495-20.237,11.097c-0.088,11.718,5.846,21.044,11.265,31.401
				C235.338,288.327,238.359,292.323,241.634,294.819z"/>
			<path style="fill:#C73A0F;" d="M238.344,313.942c-7.167-12.162-14.334-24.325-21.502-36.488
				c-1.212-2.056-2.626-4.277-4.911-4.966c-2.884-0.869-5.991,1.226-7.308,3.935s-1.289,5.851-1.234,8.861
				c0.146,8.101,0.293,16.201,0.439,24.302c0.058,3.174,0.209,6.614,2.229,9.063c2.231,2.703,6.061,3.372,9.558,3.599
				c5.557,0.358,15.765,0.909,20.072-3.546c2.135-2.209,2.876-5.662,1.836-8.553"/>
			<path style="fill:#C73A0F;" d="M253.426,330.339c0.19-1.724,0.218-3.503-0.007-5.388c-0.341-2.849-1.438-6.094-4.163-6.993
				c-4.469-1.477-7.749,4.36-10.705,6.61c-5.235,3.985-11.548,7.678-17.254,11.012c-1.952,1.14-4.02,2.403-4.958,4.46
				c-1.571,3.44,0.647,7.343,2.835,10.429c4.513,6.363,16.107,18.695,24.513,10.424c4.387-4.316,5.206-11.05,6.448-16.745
				C251.192,339.303,252.908,335.029,253.426,330.339z"/>
			<path style="fill:#C73A0F;" d="M265.469,275.724c-1.674,8.163-13.45,38.457,3.032,38.661
				c15.732,0.19,15.445-20.535,12.488-31.239c-1.125-4.072-2.8-8.063-5.492-11.319c-1.358-1.643-3.286-3.188-5.391-2.858
				C267.223,269.419,266.056,272.865,265.469,275.724z"/>
			<path style="fill:#C73A0F;" d="M258.945,326.404c-0.445,6.627-5.681,34.614,6.407,28.302c6.578-3.435,11.17-14.193,13.142-20.804
				c0.448-1.502,0.807-3.139,0.264-4.608c-0.693-1.876-2.667-2.956-4.587-3.519c-1.92-0.562-3.966-0.784-5.729-1.73
				c-2.374-1.272-4.772-3.872-7.212-2.729C259.459,322.146,259.076,324.453,258.945,326.404z"/>
		</g>
		<path style="fill:#9C3819;" d="M217.844,329.51c3.45-7.452-2.932-17.456-11.144-17.469s-14.624,9.973-11.196,17.436
			c-1.618-6.025-8.891-9.704-14.813-7.746c-5.924,1.957-9.57,8.898-8.156,14.975s7.444,10.627,13.683,10.684
			c-7.458-2.771-16.785,2.245-18.584,9.995c-1.799,7.751,4.365,16.362,12.281,17.159c-3.073-3.235-9.143-1.922-11.379,1.939
			c-2.237,3.861-1.021,9.067,2.023,12.33c3.044,3.264,7.528,4.838,11.956,5.396c-3.377,2.574-3.041,8.154-0.25,11.355
			c8.591,9.854,25.212,7.807,31.238-2.986c-0.524,6.767,8.077,11.668,14.375,9.139c6.297-2.53,9.457-10.061,8.802-16.815
			c-0.654-6.755-4.33-12.825-8.369-18.28c4.042-6.095,8.128-12.275,10.489-19.198c2.361-6.922,2.841-14.786-0.289-21.396
			s-10.426-11.485-17.65-10.347"/>
		<path style="fill:#9C3819;" d="M245.378,287.333c3.451-7.452-2.931-17.457-11.144-17.469c-8.212-0.013-14.625,9.972-11.197,17.435
			c-1.617-6.024-8.89-9.703-14.813-7.746c-5.924,1.958-9.571,8.899-8.157,14.976c1.415,6.075,7.445,10.627,13.683,10.683
			c-7.458-2.771-16.784,2.246-18.583,9.996s4.364,16.362,12.281,17.159c-3.073-3.235-9.143-1.922-11.38,1.939
			c-2.236,3.861-1.021,9.067,2.024,12.33c3.044,3.263,7.528,4.838,11.955,5.396c-3.377,2.574-3.04,8.154-0.25,11.355
			c8.592,9.854,25.213,7.807,31.239-2.986c-0.524,6.766,8.078,11.668,14.375,9.138c6.298-2.529,9.457-10.06,8.803-16.814
			c-0.655-6.755-4.331-12.826-8.369-18.28c4.042-6.095,8.128-12.276,10.489-19.198c2.36-6.923,2.84-14.786-0.29-21.396
			s-10.425-11.485-17.65-10.348"/>
		<g>
			<path style="fill:#782B13;" d="M234.763,339.581l-3.017,3.831c3.443-7.438-2.907-17.414-11.096-17.465l0.21-0.268
				c7.225-1.139,14.521,3.736,17.65,10.347c0.568,1.201,1.015,2.444,1.355,3.714C238.198,339.39,236.479,339.312,234.763,339.581z"
				/>
			<path style="fill:#782B13;" d="M184.461,402.715c3.044,3.263,7.528,4.838,11.955,5.396c-1.204,0.918-1.929,2.222-2.245,3.661
				c-4.439-0.545-8.725-2.558-11.906-6.208c-2.398-2.751-2.977-7.255-0.95-10.103C181.477,398.106,182.636,400.76,184.461,402.715z"
				/>
			<path style="fill:#782B13;" d="M174.648,372.752c-5.128-3.067-8.387-9.462-7.016-15.368c1.46-6.289,7.878-10.777,14.231-10.765
				c-4.49-1.545-8.252-5.283-9.33-9.914c-1.414-6.076,2.232-13.018,8.156-14.975c5.426-1.793,11.97,1.149,14.276,6.286
				c-2.062-7.239,4.046-15.987,11.733-15.976c7.019,0.011,12.678,7.317,12.027,14.094c-6.766,1.26-11.748,9.146-9.858,15.784
				c-2.307-5.137-8.852-8.079-14.276-6.287c-5.924,1.958-9.571,8.899-8.157,14.976c1.078,4.631,4.841,8.369,9.33,9.913
				c-6.354-0.012-12.771,4.476-14.23,10.766c-1.371,5.905,1.887,12.301,7.016,15.368c-2.44,0.228-4.87,1.583-6.113,3.73
				c-0.652,1.126-1.003,2.367-1.108,3.64c-4.031-0.679-7.998-2.24-10.771-5.212c-3.044-3.263-4.261-8.469-2.023-12.33
				C169.779,374.335,172.209,372.979,174.648,372.752z"/>
		</g>
		<path style="fill:#F5BA78;" d="M222.693,317.645c5-38.045,21.919-76.188,53.187-98.432c31.268-22.244,78.247-24.135,106.288,2.06
			c14.236,13.3,22.365,32.101,26.113,51.219c3.421,17.455,10.277,48.332-2.278,63.279c-11.751,13.99-37.465,25.596-53.077,35.292
			c-29.144,18.099-58.648,36.881-90.527,49.838c-6.893,2.801-14.943,6.605-22.478,7.131c-11.924,0.832-11.411-1.188-13.633-12.012
			C219.86,384.705,218.534,349.292,222.693,317.645z"/>
		<path style="fill:#D68E3C;" d="M231.059,317.645c5-38.045,21.918-76.188,53.187-98.432c31.269-22.244,78.246-24.135,106.287,2.06
			c14.237,13.3,22.366,32.101,26.114,51.219c3.42,17.455,10.277,48.332-2.279,63.279c-11.751,13.99-37.465,25.596-53.077,35.292
			c-29.144,18.099-58.647,36.881-90.527,49.838c-6.892,2.801-14.943,6.605-22.477,7.131c-11.924,0.832-11.411-1.188-13.633-12.012
			C228.225,384.705,226.899,349.292,231.059,317.645z"/>
		<path style="fill:#D6813C;" d="M341.289,378.405c15.613-9.695,41.326-21.301,53.078-35.291
			c12.556-14.948,5.699-45.825,2.277-63.279c-3.746-19.119-11.875-37.92-26.113-51.22c-19.561-18.273-48.335-22.864-74.566-16.427
			c30.418-15.263,69.848-14.008,94.567,9.084c14.237,13.299,22.366,32.101,26.114,51.219c3.42,17.455,10.277,48.332-2.279,63.279
			c-11.751,13.99-37.465,25.596-53.077,35.292c-29.144,18.099-58.647,36.881-90.526,49.838c-5.494,2.232-11.722,5.097-17.839,6.437
			C283.975,414.418,312.809,396.093,341.289,378.405z"/>
		<path style="fill:#D99446;" d="M246.265,335.838c1.309,16.298-1.477,59.729,20.347,64.545c5.542,1.223,11.019-2.359,14.912-6.49
			c11.648-12.363,15.418-30.051,17.672-46.888c3.051-22.797,4.203-45.833,3.709-68.824c-0.256-11.914,3.249-47.496-19.007-34.396
			c-12.624,7.432-21.744,18.197-28.534,30.997C245.586,293.21,244.595,315.042,246.265,335.838z"/>
		<path style="fill:#D6813C;" d="M356.586,268.928c1.146-4.879,8.52-5.92,10.87-1.421c1.593,3.049,1.51,7.347,0.305,10.537
			c-1.511,3.998-6.345,4.669-8.815,1.152C356.994,276.421,355.803,272.264,356.586,268.928z"/>
		<path style="fill:#D6813C;" d="M314.736,247.162c0.314-1.124,1.006-2.428,1.854-3.205c2.578-2.368,6.596-2.919,9.479-0.704
			c1.119,0.662,2.01,1.552,2.671,2.67c0.673,1.161,1.013,2.413,1.017,3.757c-0.089,1.974-0.756,3.838-2.181,5.263
			c-1.35,1.35-3.354,2.18-5.263,2.18c-1.344-0.004-2.596-0.343-3.757-1.016c-1.118-0.662-2.009-1.552-2.671-2.671
			c-0.742-0.966-1.137-2.083-1.299-3.288C314.453,249.158,314.463,248.14,314.736,247.162z"/>
		<path style="fill:#D6813C;" d="M348.96,341.329c0.591-0.365,1.355-0.658,2.02-0.861c4.282-1.313,8.668,2.264,8.668,6.604
			c0,4.333-4.388,7.914-8.668,6.603c-0.664-0.203-1.429-0.496-2.02-0.861c-2.008-1.24-3.294-3.354-3.294-5.741
			C345.666,344.683,346.952,342.57,348.96,341.329z"/>
		<path style="fill:#D6813C;" d="M279.968,383.857c10.422,0,10.439,16.196,0,16.196
			C269.547,400.054,269.529,383.857,279.968,383.857z"/>
		<path style="fill:#D6813C;" d="M324.006,305.104c2.461,0,4.818,2.163,4.704,4.704c-0.114,2.549-2.067,4.704-4.704,4.704
			c-2.461,0-4.818-2.164-4.704-4.704C319.416,307.26,321.369,305.104,324.006,305.104z"/>
		<path style="fill:#D6813C;" d="M291.824,302.723c9.119,0,9.135,14.172,0,14.172C282.705,316.895,282.69,302.723,291.824,302.723z"
			/>
	</g>
	<g>
		<path style="fill:#B8350E;" d="M422.684,58.729c17.75-3.478,36.594,6.334,46.243,21.632c9.65,15.298,10.817,34.976,5.74,52.336
			c-6.653,22.752-19.968,44.682-39.546,58.52c-15.008,10.609-46.475,12.097-53.213-9.753L422.684,58.729z"/>
		<path style="fill:#EB5E34;" d="M403.317,191.332c36.766-1.218,50.104-35.114,57.177-66.363
			c4.429-19.567,1.842-41.829-11.587-56.734c-13.43-14.905-39.157-18.954-53.757-5.192c-9.346,8.808-12.387,22.225-14.977,34.803
			c-2.803,13.613-5.605,27.226-8.408,40.839c-2.822,13.708-5.273,29.299,3,40.587C381.122,187.943,392.571,191.688,403.317,191.332z
			"/>
		<path style="fill:#C73A0F;" d="M402.846,121.487c12.271,16.575,28.631-22.611,30.527-29.483
			c1.559-5.645,2.356-12.356-1.496-16.766c-4.456-5.101-13.197-4.104-18.254,0.402c-5.058,4.505-7.253,11.354-8.821,17.942
			c-1.452,6.098-2.554,12.278-3.298,18.502C401.117,115.309,400.913,118.877,402.846,121.487z"/>
		<path style="fill:#C73A0F;" d="M430.33,149.821c-8.938-6.677-8.854-14.952-2.711-22.45c1.902-2.321,23.395-23.907,24.565-23.3
			c3.007,1.558,4.611,5.057,4.794,8.438c0.184,3.381-0.822,6.704-1.877,9.922c-2.184,6.669-4.623,13.255-7.309,19.739
			c-1.837,4.437-4.496,9.407-9.229,10.221C435.65,152.892,432.699,151.591,430.33,149.821z"/>
		<path style="fill:#C73A0F;" d="M417.922,182.891c4.756-1.299,15.479-8.18,15.766-13.431c0.27-4.966-11.285-21.262-16.154-22.159
			c-4.242-0.781-8.39,2.492-10.087,6.458c-1.698,3.966-1.532,8.448-1.337,12.758c0.176,3.889,0.391,7.928,2.234,11.357
			C410.187,181.303,414.167,183.917,417.922,182.891z"/>
		<path style="fill:#C73A0F;" d="M388.391,116.5c-4.109-0.378-7.346,3.614-8.58,7.552c-1.999,6.378-0.424,14.226,5.077,18.026
			c5.325,3.678,16.046,1.738,18.07-5.03C404.504,131.881,393.715,116.99,388.391,116.5z"/>
		<path style="fill:#C73A0F;" d="M380.57,174.487c11.633,15.261,27.566-14.008,19.908-22.714c-1.771-2.01-4.825-2.255-7.472-1.84
			c-5.454,0.855-10.618,4.08-13.277,8.918C377.069,163.689,377.223,170.096,380.57,174.487z"/>
		<path style="fill:#E34F22;" d="M393.479,141.066c-0.553,29.385,28.926,15.519,31.374-4.807
			c1.054-8.746-5.177-18.615-13.982-18.856c-5.454-0.149-10.562,3.35-13.45,7.979C394.533,130.013,393.582,135.609,393.479,141.066z
			"/>
		<path style="fill:#E67117;" d="M404.393,117.347c-0.422,5.318-0.76,24.227,8.791,18.531c5.133-3.061,4.738-13.166,6.029-18.202
			c1.038-4.048,1.794-9.066-1.393-11.769c-2.783-2.36-7.34-1.353-9.824,1.321C405.512,109.901,404.683,113.707,404.393,117.347z"/>
		<path style="fill:#E67117;" d="M418.035,146.374c-20.715-5.715,8.16-23.028,16.285-11.581c0.703,1.583,0.17,3.446-0.661,4.965
			C430.731,145.111,423.917,147.996,418.035,146.374z"/>
		<path style="fill:#E67117;" d="M407.59,157.145c-2.352-4.681-2.38-17.828,5.31-17.465c5.927,0.28,10.824,11.363,10.312,16.271
			C422.215,165.473,411.192,164.313,407.59,157.145z"/>
		<path style="fill:#E67117;" d="M395.83,144.195c-12.461-6.988-7.777-20.583,5.973-15.854c3.5,1.204,6.777,3.55,8.25,6.945
			c1.473,3.396,0.678,7.877-2.385,9.955C404.211,147.587,399.475,146.239,395.83,144.195z"/>
		<path style="fill:#E67117;" d="M396.152,145.623c5.684-5.305,12.957-2.56,11.428,5.727c-1.098,5.957-7.662,7.933-11.271,11.602
			c-1.31,1.332-2.964,2.717-4.809,2.419c-1.831-0.296-3.022-2.245-3.101-4.099c-0.077-1.854,0.686-3.628,1.432-5.327
			C391.469,152.225,393.182,148.396,396.152,145.623z"/>
		<path style="fill:#E67117;" d="M445.71,116.645c3.115-2.375,6.811,2.463,3.689,4.842
			C446.284,123.861,442.59,119.023,445.71,116.645z"/>
		<path style="fill:#E67117;" d="M443.443,129.096c0.307-0.169,0.614-0.338,0.922-0.508c1.59-0.874,3.463,1.582,2.197,2.883
			c-0.245,0.251-0.49,0.503-0.734,0.755c-0.908,0.933-2.379,1.14-3.247,0C441.721,131.096,442.301,129.725,443.443,129.096z"/>
		<path style="fill:#E67117;" d="M437.109,143.41c0.092-0.113,0.183-0.226,0.273-0.339c1.121-1.388,3.281-1.446,4.383,0
			c1.098,1.439,0.474,3.513-1.162,4.226c-0.134,0.058-0.268,0.116-0.4,0.174C437.824,148.506,435.479,145.432,437.109,143.41z"/>
		<path style="fill:#E67117;" d="M422.428,95.851c0.187-1.384,1.055-2.194,2.208-2.838c0.128-0.071,0.255-0.143,0.384-0.214
			c1.274-0.711,3.306-0.014,4.1,1.13c0.354,0.512,0.589,1.083,0.691,1.699c0.125,0.745-0.142,1.996-0.69,2.553
			c-0.103,0.104-0.205,0.208-0.308,0.313c-0.895,0.909-1.966,1.619-3.322,1.376c-0.934-0.167-1.777-0.605-2.363-1.375
			C422.571,97.766,422.305,96.759,422.428,95.851z"/>
		<path style="fill:#E67117;" d="M417.068,84.649c1.072-0.744,2.686-0.67,3.486,0.471c0.13,0.185,0.26,0.37,0.391,0.555
			c0.738,1.053,0.656,2.671-0.467,3.45c-1.132,0.785-2.57,0.599-3.449-0.466c-0.145-0.174-0.288-0.349-0.432-0.523
			C415.768,87.132,415.992,85.396,417.068,84.649z"/>
		<path style="fill:#E67117;" d="M408.076,92.972c2.736-2.085,5.982,2.164,3.241,4.252C408.581,99.31,405.336,95.061,408.076,92.972
			z"/>
		<path style="fill:#E67117;" d="M385.768,121.827c1.408-1.074,3.079,1.114,1.668,2.189
			C386.027,125.09,384.355,122.902,385.768,121.827z"/>
		<path style="fill:#E67117;" d="M383.166,129.592c2.249-1.713,4.916,1.778,2.663,3.495
			C383.58,134.8,380.914,131.309,383.166,129.592z"/>
		<path style="fill:#E67117;" d="M424.975,170.784l-0.213-0.618c-0.338-0.974,0.732-1.791,1.582-1.207l0.539,0.371
			c0.674,0.462,0.619,1.509,0.001,1.979S425.242,171.555,424.975,170.784z"/>
		<path style="fill:#E67117;" d="M417.138,171.935c1.489-1.136,3.257,1.178,1.765,2.315
			C417.412,175.386,415.645,173.072,417.138,171.935z"/>
		<path style="fill:#E67117;" d="M386.259,170.738c0.054-0.234,0.108-0.469,0.161-0.704c0.35-1.516,1.668-2.853,3.35-2.552
			c1.709,0.306,2.623,1.683,2.553,3.349c-0.01,0.241-0.021,0.481-0.031,0.721c-0.066,1.597-1.906,2.88-3.423,2.609
			C387.367,173.893,385.878,172.395,386.259,170.738z"/>
		<path style="fill:#E67117;" d="M383.704,162.247c0.192-0.031,0.386-0.063,0.577-0.095c1.155-0.191,2.152,1.119,1.662,2.181
			c-0.081,0.178-0.163,0.354-0.244,0.532c-0.598,1.296-2.375,1.614-3.279,0.429C381.518,164.109,382.295,162.48,383.704,162.247z"/>
	</g>
	<g>
		<path style="fill:#35971D;" d="M131.916,335.528c-0.49,9.008-5.251,17.563-12.241,23.264c-6.991,5.701-16.054,8.622-25.073,8.77
			c-27.575,0.451-52.064-24.043-61.143-48.373c-3.794-10.171-5.466-21.298-3.548-31.983c1.917-10.686,7.642-20.869,16.534-27.096
			L131.916,335.528z"/>
		<path style="fill:#7FC239;" d="M33.549,292.406c0.002,1.143,0.039,2.245,0.092,3.296c0.042,1.05,0.116,2.092,0.202,3.135
			c1.08,11.93,5.455,23.532,12.417,33.275c1.081,1.52,2.24,3.003,3.447,4.426c1.801,2.123,3.74,4.13,5.807,6.008
			c6.328,5.752,13.979,10.225,22.137,12.827c1.289,0.416,2.605,0.78,3.914,1.09c7.789,1.879,15.903,2.012,23.655-0.063
			c3.373-0.897,7.733-2.376,11.887-4.458c1.302-0.641,2.589-1.356,3.815-2.121c6.246-3.907,11.007-9.346,9.416-16.363
			c-1.573-6.973-7.211-12.166-12.567-16.888c-6.104-5.381-12.194-10.771-18.298-16.152c-0.339-0.295-0.688-0.601-1.025-0.896
			c-3.205-2.837-6.421-5.674-9.627-8.5c-0.497-0.446-1.006-0.884-1.503-1.33c-8.612-7.594-17.223-15.199-25.834-22.793
			c-2.519-2.226-4.668-4.398-6.665-6.079c-4.763-4.021-8.581-5.242-14.17,2.349C35.289,270.437,33.487,282.888,33.549,292.406z"/>
		<path style="fill:#99D459;" d="M33.549,292.406c0.002,1.143,0.039,2.245,0.092,3.296c0.042,1.05,0.116,2.092,0.202,3.135
			c0.976,0.593,2.499,0.248,2.951-0.836c14.745-0.134,30.15,3.79,44.727,0.643c0.236,1.802,0.884,3.542,1.929,4.984
			c-2.345,0.479-4.024,2.851-5.891,4.513c-3.259,2.893-6.561,5.781-9.928,8.559c-3.62,2.991-7.334,5.836-11.194,8.498
			c-3.339,2.31-7.117,4.241-10.177,6.915c1.081,1.52,2.24,3.003,3.447,4.426c7.716-3.455,14.989-10.503,21.283-15.89
			c3.56-3.05,6.993-6.237,10.221-9.656c1.603-1.705,3.706-3.262,4.141-5.426c0.061,0.038,0.109,0.095,0.17,0.132
			c0.655,0.471,1.344,0.805,2.059,1.066c-2.729,6.32-3.477,14.117-4.744,20.58c-1.783,9.1-4.712,18.746-5.184,28.007
			c-0.001,0.011-0.001,0.011-0.002,0.021c1.289,0.416,2.605,0.78,3.914,1.09c0.049-0.07,0.076-0.143,0.104-0.226
			c2.906-8.335,3.788-17.766,5.472-26.436c1.36-6.946,3.886-15.066,3.682-22.462c1.688-0.021,3.361-0.492,4.81-1.355
			c3.473,8.026,6.968,16.033,10.629,23.979c2.164,4.716,4.385,9.394,6.583,14.09c1.318,2.8,2.312,5.657,4.264,7.889
			c1.302-0.641,2.589-1.356,3.815-2.121c-0.605-3.156-2.412-5.996-3.835-8.953c-2.098-4.357-4.173-8.724-6.304-13.073
			c-4.005-8.167-8.156-16.249-12.353-24.313c0.373-0.504,0.705-1.042,0.977-1.618c0.26-0.555,0.246-1.047,0.065-1.446
			c-0.19-0.411-0.569-0.73-1.025-0.896c-0.807-0.323-1.862-0.207-2.489,0.532c-0.013,0.021-0.035,0.04-0.047,0.05
			c-0.846-0.103-1.746,0.465-1.924,1.325c-1.693,0.726-3.775,0.726-5.188-0.404c-0.9-0.726-1.388-1.951-1.465-3.089
			c-0.092-1.481,0.686-2.111,1.516-3.239c0.889-1.208,0.695-2.611-0.029-3.675c-0.381-0.565-0.908-1.035-1.503-1.33
			c-0.872-0.435-1.881-0.496-2.772,0.082c-6.337-3.959-12.826-7.631-19.395-11.246c-7.426-4.091-16.568-7.564-23.059-13.041
			c-2.655-2.247-5.567,3.173-2.181,4.188c8.618,2.577,17.005,8.754,24.956,12.952c5.966,3.148,11.927,6.233,18.035,9.084
			c-0.741,1.22-1.206,2.591-1.389,4.028c-15.043-2.475-31.063,0.704-45.94-3.411C34.832,292.116,34.134,292.166,33.549,292.406z"/>
	</g>
</g>
<g id="Designed_by_Freepik" style="display:none;">
</g>
</svg>
